# xmcd CD database file
#
# Track frame offsets:
#	150
#	29808
#	82170
#	103035
#	108606
#	137026
#	185416
#	193328
#	222862
#	232668
#	244090
#	263607
#	280985
#
# Disc length: 3945 seconds
#
# Revision: 0
# Processed by: cddbd v1.5.2PL0 Copyright (c) Steve Scherf et al.
# Submitted via: CDex 1.51
#
DISCID=c10f670d
DTITLE=Penelope Smith - How To Communicate With Animals Disk2
DYEAR=2004
DGENRE=New Age
TTITLE0=trac01 Preparation To Becoming An Animal Exercise
TTITLE1=trac02 Becoming An Animal Exercise
TTITLE2=trac03 Exercise Before Part 2
TTITLE3=trac04 Part 2 Introduction
TTITLE4=trac05 Being Present And Receptive Exercise
TTITLE5=trac06 Soft Focus Exercise
TTITLE6=trac07 Review Of Tools Used
TTITLE7=trac08 Group Communication Exercise
TTITLE8=trac09 Imagination Exercise Introduction
TTITLE9=trac10 Imagine A Greeting Exercise
TTITLE10=trac11Imagine A Dialogue Exercise
TTITLE11=trac12 Two way Communication Practice Exercise
TTITLE12=trac13 Ending
EXTD=YEAR: 2004
EXTT0=
EXTT1=
EXTT2=
EXTT3=
EXTT4=
EXTT5=
EXTT6=
EXTT7=
EXTT8=
EXTT9=
EXTT10=
EXTT11=
EXTT12=
PLAYORDER=
